<svg width="33" height="33" viewBox="0 0 33 33" fill="none" xmlns="http://www.w3.org/2000/svg">
<path d="M29.5738 13.8887H28.4998V13.8334H16.4998V19.1667H24.0352C22.9358 22.2714 19.9818 24.5001 16.4998 24.5001C12.0818 24.5001 8.49984 20.9181 8.49984 16.5001C8.49984 12.0821 12.0818 8.50008 16.4998 8.50008C18.5392 8.50008 20.3945 9.26941 21.8072 10.5261L25.5785 6.75475C23.1972 4.53541 20.0118 3.16675 16.4998 3.16675C9.1365 3.16675 3.1665 9.13675 3.1665 16.5001C3.1665 23.8634 9.1365 29.8334 16.4998 29.8334C23.8632 29.8334 29.8332 23.8634 29.8332 16.5001C29.8332 15.6061 29.7412 14.7334 29.5738 13.8887Z" fill="#FFC107"/>
<path d="M4.7041 10.2941L9.08477 13.5067C10.2701 10.5721 13.1408 8.50008 16.5001 8.50008C18.5394 8.50008 20.3948 9.26941 21.8074 10.5261L25.5788 6.75475C23.1974 4.53541 20.0121 3.16675 16.5001 3.16675C11.3788 3.16675 6.93743 6.05808 4.7041 10.2941Z" fill="#FF3D00"/>
<path d="M16.4999 29.8333C19.9439 29.8333 23.0732 28.5153 25.4392 26.372L21.3126 22.88C19.9739 23.894 18.3099 24.5 16.4999 24.5C13.0319 24.5 10.0872 22.2886 8.97788 19.2026L4.62988 22.5526C6.83655 26.8706 11.3179 29.8333 16.4999 29.8333Z" fill="#4CAF50"/>
<path d="M29.574 13.8886H28.5V13.8333H16.5V19.1666H24.0353C23.5073 20.6579 22.548 21.9439 21.3107 22.8806L21.3127 22.8793L25.4393 26.3713C25.1473 26.6366 29.8333 23.1666 29.8333 16.4999C29.8333 15.6059 29.7413 14.7333 29.574 13.8886Z" fill="#1976D2"/>
</svg>
